<mxfile host="app.diagrams.net" modified="2023-06-13T08:32:07.006Z" agent="Mozilla/5.0 (Windows NT 10.0; Win64; x64) AppleWebKit/537.36 (KHTML, like Gecko) Chrome/114.0.0.0 Safari/537.36" etag="PQ9xRa_UA4e0Jx3UM6Fa" version="21.3.8" type="device">
  <diagram name="Page-1" id="NpyjWaPUAGURpsku2bch">
    <mxGraphModel dx="2085" dy="646" grid="1" gridSize="10" guides="1" tooltips="1" connect="1" arrows="1" fold="1" page="1" pageScale="1" pageWidth="850" pageHeight="1100" background="#ffffff" math="0" shadow="1">
      <root>
        <mxCell id="0" />
        <mxCell id="1" parent="0" />
        <mxCell id="2-lY4bX0Rd5JklMdWBMz-5" value="" style="group" parent="1" vertex="1" connectable="0">
          <mxGeometry x="40" y="175" width="360" height="60" as="geometry" />
        </mxCell>
        <mxCell id="2-lY4bX0Rd5JklMdWBMz-2" value="&lt;font style=&quot;font-size: 18px;&quot;&gt;&lt;u&gt;&lt;b&gt;branch_id&lt;/b&gt;&lt;/u&gt;&lt;/font&gt;" style="rounded=0;whiteSpace=wrap;html=1;" parent="2-lY4bX0Rd5JklMdWBMz-5" vertex="1">
          <mxGeometry width="120" height="60" as="geometry" />
        </mxCell>
        <mxCell id="2-lY4bX0Rd5JklMdWBMz-3" value="&lt;font style=&quot;font-size: 18px;&quot;&gt;city&lt;/font&gt;" style="rounded=0;whiteSpace=wrap;html=1;" parent="2-lY4bX0Rd5JklMdWBMz-5" vertex="1">
          <mxGeometry x="120" width="120" height="60" as="geometry" />
        </mxCell>
        <mxCell id="2-lY4bX0Rd5JklMdWBMz-4" value="&lt;font style=&quot;font-size: 18px;&quot;&gt;location&lt;/font&gt;" style="rounded=0;whiteSpace=wrap;html=1;" parent="2-lY4bX0Rd5JklMdWBMz-5" vertex="1">
          <mxGeometry x="240" width="120" height="60" as="geometry" />
        </mxCell>
        <mxCell id="2-lY4bX0Rd5JklMdWBMz-6" value="" style="group" parent="1" vertex="1" connectable="0">
          <mxGeometry x="37" y="723" width="360" height="60" as="geometry" />
        </mxCell>
        <mxCell id="2-lY4bX0Rd5JklMdWBMz-16" value="" style="group" parent="2-lY4bX0Rd5JklMdWBMz-6" vertex="1" connectable="0">
          <mxGeometry width="360" height="60" as="geometry" />
        </mxCell>
        <mxCell id="2-lY4bX0Rd5JklMdWBMz-18" value="" style="group" parent="2-lY4bX0Rd5JklMdWBMz-16" vertex="1" connectable="0">
          <mxGeometry width="360" height="60" as="geometry" />
        </mxCell>
        <mxCell id="2-lY4bX0Rd5JklMdWBMz-7" value="&lt;font style=&quot;font-size: 18px;&quot;&gt;&lt;u&gt;&lt;b&gt;SSN&lt;/b&gt;&lt;/u&gt;&lt;/font&gt;" style="rounded=0;whiteSpace=wrap;html=1;" parent="2-lY4bX0Rd5JklMdWBMz-18" vertex="1">
          <mxGeometry width="120" height="60" as="geometry" />
        </mxCell>
        <mxCell id="2-lY4bX0Rd5JklMdWBMz-8" value="&lt;font style=&quot;font-size: 18px;&quot;&gt;fname&lt;/font&gt;" style="rounded=0;whiteSpace=wrap;html=1;" parent="2-lY4bX0Rd5JklMdWBMz-18" vertex="1">
          <mxGeometry x="120" width="90" height="60" as="geometry" />
        </mxCell>
        <mxCell id="2-lY4bX0Rd5JklMdWBMz-9" value="&lt;font style=&quot;font-size: 18px;&quot;&gt;lname&lt;/font&gt;" style="rounded=0;whiteSpace=wrap;html=1;" parent="2-lY4bX0Rd5JklMdWBMz-18" vertex="1">
          <mxGeometry x="210" width="90" height="60" as="geometry" />
        </mxCell>
        <mxCell id="2-lY4bX0Rd5JklMdWBMz-10" value="&lt;font style=&quot;font-size: 18px;&quot;&gt;email&lt;/font&gt;" style="rounded=0;whiteSpace=wrap;html=1;" parent="1" vertex="1">
          <mxGeometry x="330" y="723" width="80" height="60" as="geometry" />
        </mxCell>
        <mxCell id="2-lY4bX0Rd5JklMdWBMz-11" value="&lt;font style=&quot;font-size: 18px;&quot;&gt;password&lt;/font&gt;" style="rounded=0;whiteSpace=wrap;html=1;" parent="1" vertex="1">
          <mxGeometry x="410" y="723" width="110" height="60" as="geometry" />
        </mxCell>
        <mxCell id="2-lY4bX0Rd5JklMdWBMz-12" value="&lt;font style=&quot;font-size: 18px;&quot;&gt;position&lt;/font&gt;" style="rounded=0;whiteSpace=wrap;html=1;" parent="1" vertex="1">
          <mxGeometry x="600" y="723" width="90" height="60" as="geometry" />
        </mxCell>
        <mxCell id="2-lY4bX0Rd5JklMdWBMz-13" value="&lt;font style=&quot;font-size: 18px;&quot;&gt;gender&lt;/font&gt;" style="rounded=0;whiteSpace=wrap;html=1;" parent="1" vertex="1">
          <mxGeometry x="521" y="723" width="79" height="60" as="geometry" />
        </mxCell>
        <mxCell id="2-lY4bX0Rd5JklMdWBMz-14" value="&lt;font style=&quot;font-size: 18px;&quot;&gt;salary&lt;/font&gt;" style="rounded=0;whiteSpace=wrap;html=1;" parent="1" vertex="1">
          <mxGeometry x="690" y="723" width="80" height="60" as="geometry" />
        </mxCell>
        <mxCell id="2-lY4bX0Rd5JklMdWBMz-15" value="&lt;font style=&quot;font-size: 18px;&quot;&gt;birth_date&lt;/font&gt;" style="rounded=0;whiteSpace=wrap;html=1;" parent="1" vertex="1">
          <mxGeometry x="770" y="723" width="90" height="60" as="geometry" />
        </mxCell>
        <mxCell id="2-lY4bX0Rd5JklMdWBMz-17" value="&lt;font style=&quot;font-size: 18px;&quot;&gt;city&lt;/font&gt;" style="rounded=0;whiteSpace=wrap;html=1;" parent="1" vertex="1">
          <mxGeometry x="860" y="723" width="80" height="60" as="geometry" />
        </mxCell>
        <mxCell id="2-lY4bX0Rd5JklMdWBMz-33" value="" style="group;movable=1;resizable=1;rotatable=1;deletable=1;editable=1;locked=0;connectable=1;" parent="1" vertex="1" connectable="0">
          <mxGeometry x="40" y="1060" width="530" height="60" as="geometry" />
        </mxCell>
        <mxCell id="2-lY4bX0Rd5JklMdWBMz-28" value="&lt;u&gt;&lt;font style=&quot;font-size: 18px;&quot;&gt;&lt;b&gt;crs_id&lt;/b&gt;&lt;/font&gt;&lt;/u&gt;" style="rounded=0;whiteSpace=wrap;html=1;" parent="2-lY4bX0Rd5JklMdWBMz-33" vertex="1">
          <mxGeometry x="120" width="120" height="60" as="geometry" />
        </mxCell>
        <mxCell id="GpkhenYr9liRKs2xWVtS-37" style="edgeStyle=orthogonalEdgeStyle;rounded=0;orthogonalLoop=1;jettySize=auto;html=1;exitX=0.5;exitY=1;exitDx=0;exitDy=0;" edge="1" parent="2-lY4bX0Rd5JklMdWBMz-33" source="2-lY4bX0Rd5JklMdWBMz-29">
          <mxGeometry relative="1" as="geometry">
            <mxPoint y="330" as="targetPoint" />
            <Array as="points">
              <mxPoint x="300" y="70" />
              <mxPoint x="-140" y="70" />
              <mxPoint x="-140" y="330" />
            </Array>
          </mxGeometry>
        </mxCell>
        <mxCell id="2-lY4bX0Rd5JklMdWBMz-29" value="&lt;u&gt;&lt;font style=&quot;font-size: 18px;&quot;&gt;&lt;b&gt;student_SSN&lt;/b&gt;&lt;/font&gt;&lt;/u&gt;" style="rounded=0;whiteSpace=wrap;html=1;" parent="2-lY4bX0Rd5JklMdWBMz-33" vertex="1">
          <mxGeometry x="240" width="120" height="60" as="geometry" />
        </mxCell>
        <mxCell id="2-lY4bX0Rd5JklMdWBMz-30" value="&lt;u&gt;&lt;font style=&quot;font-size: 18px;&quot;&gt;&lt;b&gt;instructor_id&lt;/b&gt;&lt;/font&gt;&lt;/u&gt;" style="rounded=0;whiteSpace=wrap;html=1;" parent="2-lY4bX0Rd5JklMdWBMz-33" vertex="1">
          <mxGeometry width="120" height="60" as="geometry" />
        </mxCell>
        <mxCell id="Q7ExMp8XgD985KsD7Zx5-17" value="&lt;font style=&quot;font-size: 14px;&quot;&gt;std_instructor_satisfaction&lt;/font&gt;" style="whiteSpace=wrap;html=1;rounded=0;" parent="2-lY4bX0Rd5JklMdWBMz-33" vertex="1">
          <mxGeometry x="360" width="170" height="60" as="geometry" />
        </mxCell>
        <mxCell id="2-lY4bX0Rd5JklMdWBMz-40" value="" style="group;movable=1;resizable=1;rotatable=1;deletable=1;editable=1;locked=0;connectable=1;" parent="1" vertex="1" connectable="0">
          <mxGeometry x="25" y="615" width="240" height="60" as="geometry" />
        </mxCell>
        <mxCell id="2-lY4bX0Rd5JklMdWBMz-41" value="" style="group" parent="2-lY4bX0Rd5JklMdWBMz-40" vertex="1" connectable="0">
          <mxGeometry width="240" height="60" as="geometry" />
        </mxCell>
        <mxCell id="2-lY4bX0Rd5JklMdWBMz-38" value="&lt;u&gt;&lt;b&gt;&lt;font style=&quot;font-size: 18px;&quot;&gt;year&lt;/font&gt;&lt;/b&gt;&lt;/u&gt;" style="rounded=0;whiteSpace=wrap;html=1;" parent="2-lY4bX0Rd5JklMdWBMz-41" vertex="1">
          <mxGeometry x="120" width="120" height="60" as="geometry" />
        </mxCell>
        <mxCell id="2-lY4bX0Rd5JklMdWBMz-39" value="&lt;u&gt;&lt;font style=&quot;font-size: 18px;&quot;&gt;&lt;b&gt;round_no&lt;/b&gt;&lt;/font&gt;&lt;/u&gt;" style="rounded=0;whiteSpace=wrap;html=1;" parent="2-lY4bX0Rd5JklMdWBMz-41" vertex="1">
          <mxGeometry width="120" height="60" as="geometry" />
        </mxCell>
        <mxCell id="2-lY4bX0Rd5JklMdWBMz-44" value="&lt;b&gt;&lt;font style=&quot;font-size: 18px;&quot;&gt;Branch&lt;/font&gt;&lt;/b&gt;" style="text;html=1;align=center;verticalAlign=middle;resizable=0;points=[];autosize=1;strokeColor=none;fillColor=none;" parent="1" vertex="1">
          <mxGeometry x="25" y="120" width="90" height="40" as="geometry" />
        </mxCell>
        <mxCell id="2-lY4bX0Rd5JklMdWBMz-45" value="&lt;b&gt;&lt;font style=&quot;font-size: 18px;&quot;&gt;Round&lt;/font&gt;&lt;/b&gt;" style="text;html=1;align=center;verticalAlign=middle;resizable=0;points=[];autosize=1;strokeColor=none;fillColor=none;" parent="1" vertex="1">
          <mxGeometry x="10" y="570" width="80" height="40" as="geometry" />
        </mxCell>
        <mxCell id="2-lY4bX0Rd5JklMdWBMz-47" value="&lt;font style=&quot;font-size: 18px;&quot;&gt;&lt;b&gt;Branch_Track&lt;/b&gt;&lt;/font&gt;" style="text;html=1;align=center;verticalAlign=middle;resizable=0;points=[];autosize=1;strokeColor=none;fillColor=none;" parent="1" vertex="1">
          <mxGeometry x="25" y="240" width="140" height="40" as="geometry" />
        </mxCell>
        <mxCell id="2-lY4bX0Rd5JklMdWBMz-49" value="&lt;font style=&quot;font-size: 18px;&quot;&gt;&lt;b&gt;Instructor&lt;/b&gt;&lt;/font&gt;" style="text;html=1;align=center;verticalAlign=middle;resizable=0;points=[];autosize=1;strokeColor=none;fillColor=none;" parent="1" vertex="1">
          <mxGeometry x="27" y="683" width="110" height="40" as="geometry" />
        </mxCell>
        <mxCell id="2-lY4bX0Rd5JklMdWBMz-50" value="&lt;font style=&quot;font-size: 18px;&quot;&gt;description&lt;/font&gt;" style="rounded=0;whiteSpace=wrap;html=1;" parent="1" vertex="1">
          <mxGeometry x="280" y="930" width="120" height="60" as="geometry" />
        </mxCell>
        <mxCell id="2-lY4bX0Rd5JklMdWBMz-51" value="&lt;font style=&quot;font-size: 18px;&quot;&gt;course_name&lt;/font&gt;" style="rounded=0;whiteSpace=wrap;html=1;" parent="1" vertex="1">
          <mxGeometry x="160" y="930" width="120" height="60" as="geometry" />
        </mxCell>
        <mxCell id="GpkhenYr9liRKs2xWVtS-11" style="edgeStyle=orthogonalEdgeStyle;rounded=0;orthogonalLoop=1;jettySize=auto;html=1;exitX=0.75;exitY=0;exitDx=0;exitDy=0;entryX=0.75;entryY=1;entryDx=0;entryDy=0;" edge="1" parent="1" source="2-lY4bX0Rd5JklMdWBMz-52" target="2-lY4bX0Rd5JklMdWBMz-163">
          <mxGeometry relative="1" as="geometry" />
        </mxCell>
        <mxCell id="GpkhenYr9liRKs2xWVtS-14" style="edgeStyle=orthogonalEdgeStyle;rounded=0;orthogonalLoop=1;jettySize=auto;html=1;exitX=0.75;exitY=1;exitDx=0;exitDy=0;entryX=0.415;entryY=-0.002;entryDx=0;entryDy=0;entryPerimeter=0;" edge="1" parent="1" source="2-lY4bX0Rd5JklMdWBMz-52" target="2-lY4bX0Rd5JklMdWBMz-33">
          <mxGeometry relative="1" as="geometry" />
        </mxCell>
        <mxCell id="2-lY4bX0Rd5JklMdWBMz-52" value="&lt;u&gt;&lt;font style=&quot;font-size: 18px;&quot;&gt;&lt;b&gt;course_id&lt;/b&gt;&lt;/font&gt;&lt;/u&gt;" style="rounded=0;whiteSpace=wrap;html=1;" parent="1" vertex="1">
          <mxGeometry x="40" y="930" width="120" height="60" as="geometry" />
        </mxCell>
        <mxCell id="2-lY4bX0Rd5JklMdWBMz-59" value="&lt;font style=&quot;font-size: 18px;&quot;&gt;&lt;b&gt;Instructor_teach_Course&lt;/b&gt;&lt;/font&gt;" style="text;html=1;align=center;verticalAlign=middle;resizable=0;points=[];autosize=1;strokeColor=none;fillColor=none;" parent="1" vertex="1">
          <mxGeometry x="31" y="793" width="240" height="40" as="geometry" />
        </mxCell>
        <mxCell id="2-lY4bX0Rd5JklMdWBMz-61" value="&lt;font style=&quot;font-size: 18px;&quot;&gt;phone&lt;/font&gt;" style="rounded=0;whiteSpace=wrap;html=1;" parent="1" vertex="1">
          <mxGeometry x="940" y="723" width="90" height="60" as="geometry" />
        </mxCell>
        <mxCell id="2-lY4bX0Rd5JklMdWBMz-132" style="edgeStyle=orthogonalEdgeStyle;rounded=0;orthogonalLoop=1;jettySize=auto;html=1;entryX=0;entryY=0.5;entryDx=0;entryDy=0;" parent="1" source="2-lY4bX0Rd5JklMdWBMz-62" target="2-lY4bX0Rd5JklMdWBMz-52" edge="1">
          <mxGeometry relative="1" as="geometry">
            <Array as="points">
              <mxPoint x="940" y="1270" />
              <mxPoint y="1270" />
              <mxPoint y="960" />
            </Array>
          </mxGeometry>
        </mxCell>
        <mxCell id="2-lY4bX0Rd5JklMdWBMz-62" value="&lt;font style=&quot;font-size: 18px;&quot;&gt;course_id&lt;/font&gt;" style="rounded=0;whiteSpace=wrap;html=1;" parent="1" vertex="1">
          <mxGeometry x="880" y="1200" width="120" height="60" as="geometry" />
        </mxCell>
        <mxCell id="2-lY4bX0Rd5JklMdWBMz-63" value="&lt;font style=&quot;font-size: 18px;&quot;&gt;model answer&lt;/font&gt;" style="rounded=0;whiteSpace=wrap;html=1;" parent="1" vertex="1">
          <mxGeometry x="760" y="1200" width="120" height="60" as="geometry" />
        </mxCell>
        <mxCell id="2-lY4bX0Rd5JklMdWBMz-64" value="&lt;font style=&quot;font-size: 18px;&quot;&gt;D&lt;/font&gt;" style="rounded=0;whiteSpace=wrap;html=1;" parent="1" vertex="1">
          <mxGeometry x="640" y="1200" width="120" height="60" as="geometry" />
        </mxCell>
        <mxCell id="2-lY4bX0Rd5JklMdWBMz-65" value="&lt;font style=&quot;font-size: 18px;&quot;&gt;C&lt;/font&gt;" style="rounded=0;whiteSpace=wrap;html=1;" parent="1" vertex="1">
          <mxGeometry x="520" y="1200" width="120" height="60" as="geometry" />
        </mxCell>
        <mxCell id="2-lY4bX0Rd5JklMdWBMz-66" value="&lt;font style=&quot;font-size: 18px;&quot;&gt;B&lt;/font&gt;" style="rounded=0;whiteSpace=wrap;html=1;" parent="1" vertex="1">
          <mxGeometry x="400" y="1200" width="120" height="60" as="geometry" />
        </mxCell>
        <mxCell id="2-lY4bX0Rd5JklMdWBMz-67" value="&lt;font style=&quot;font-size: 18px;&quot;&gt;A&lt;/font&gt;" style="rounded=0;whiteSpace=wrap;html=1;" parent="1" vertex="1">
          <mxGeometry x="280" y="1200" width="120" height="60" as="geometry" />
        </mxCell>
        <mxCell id="2-lY4bX0Rd5JklMdWBMz-68" value="&lt;font style=&quot;font-size: 18px;&quot;&gt;Q_type&lt;/font&gt;" style="rounded=0;whiteSpace=wrap;html=1;" parent="1" vertex="1">
          <mxGeometry x="160" y="1200" width="120" height="60" as="geometry" />
        </mxCell>
        <mxCell id="2-lY4bX0Rd5JklMdWBMz-69" value="&lt;u&gt;&lt;font style=&quot;font-size: 18px;&quot;&gt;&lt;b&gt;Q_id&lt;/b&gt;&lt;/font&gt;&lt;/u&gt;" style="rounded=0;whiteSpace=wrap;html=1;" parent="1" vertex="1">
          <mxGeometry x="40" y="1200" width="120" height="60" as="geometry" />
        </mxCell>
        <mxCell id="2-lY4bX0Rd5JklMdWBMz-70" value="&lt;font style=&quot;font-size: 18px;&quot;&gt;Gender&lt;/font&gt;" style="rounded=0;whiteSpace=wrap;html=1;" parent="1" vertex="1">
          <mxGeometry x="1170" y="1360" width="80" height="60" as="geometry" />
        </mxCell>
        <mxCell id="2-lY4bX0Rd5JklMdWBMz-71" value="&lt;font style=&quot;font-size: 14px;&quot;&gt;social_media_link&lt;/font&gt;" style="rounded=0;whiteSpace=wrap;html=1;" parent="1" vertex="1">
          <mxGeometry x="1050" y="1360" width="120" height="60" as="geometry" />
        </mxCell>
        <mxCell id="2-lY4bX0Rd5JklMdWBMz-72" value="&lt;font style=&quot;font-size: 18px;&quot;&gt;gotAjob&lt;/font&gt;" style="rounded=0;whiteSpace=wrap;html=1;" parent="1" vertex="1">
          <mxGeometry x="960" y="1360" width="90" height="60" as="geometry" />
        </mxCell>
        <mxCell id="2-lY4bX0Rd5JklMdWBMz-73" value="&lt;font style=&quot;font-size: 18px;&quot;&gt;BD&lt;/font&gt;" style="rounded=0;whiteSpace=wrap;html=1;" parent="1" vertex="1">
          <mxGeometry x="900" y="1360" width="60" height="60" as="geometry" />
        </mxCell>
        <mxCell id="2-lY4bX0Rd5JklMdWBMz-74" value="&lt;font style=&quot;font-size: 18px;&quot;&gt;graduated&lt;/font&gt;" style="rounded=0;whiteSpace=wrap;html=1;" parent="1" vertex="1">
          <mxGeometry x="790" y="1360" width="110" height="60" as="geometry" />
        </mxCell>
        <mxCell id="2-lY4bX0Rd5JklMdWBMz-75" value="&lt;font style=&quot;font-size: 18px;&quot;&gt;faculty&lt;/font&gt;" style="rounded=0;whiteSpace=wrap;html=1;" parent="1" vertex="1">
          <mxGeometry x="700" y="1360" width="90" height="60" as="geometry" />
        </mxCell>
        <mxCell id="2-lY4bX0Rd5JklMdWBMz-76" value="&lt;font style=&quot;font-size: 18px;&quot;&gt;city&lt;/font&gt;" style="rounded=0;whiteSpace=wrap;html=1;" parent="1" vertex="1">
          <mxGeometry x="630" y="1360" width="70" height="60" as="geometry" />
        </mxCell>
        <mxCell id="2-lY4bX0Rd5JklMdWBMz-77" value="&lt;font style=&quot;font-size: 18px;&quot;&gt;phone&lt;/font&gt;" style="rounded=0;whiteSpace=wrap;html=1;" parent="1" vertex="1">
          <mxGeometry x="550" y="1360" width="80" height="60" as="geometry" />
        </mxCell>
        <mxCell id="2-lY4bX0Rd5JklMdWBMz-78" value="&lt;font style=&quot;font-size: 18px;&quot;&gt;password&lt;/font&gt;" style="rounded=0;whiteSpace=wrap;html=1;" parent="1" vertex="1">
          <mxGeometry x="450" y="1360" width="100" height="60" as="geometry" />
        </mxCell>
        <mxCell id="2-lY4bX0Rd5JklMdWBMz-79" value="&lt;font style=&quot;font-size: 18px;&quot;&gt;e-mail&lt;/font&gt;" style="rounded=0;whiteSpace=wrap;html=1;" parent="1" vertex="1">
          <mxGeometry x="350" y="1360" width="100" height="60" as="geometry" />
        </mxCell>
        <mxCell id="2-lY4bX0Rd5JklMdWBMz-80" value="&lt;font style=&quot;font-size: 18px;&quot;&gt;L.name&lt;/font&gt;" style="rounded=0;whiteSpace=wrap;html=1;" parent="1" vertex="1">
          <mxGeometry x="260" y="1360" width="90" height="60" as="geometry" />
        </mxCell>
        <mxCell id="2-lY4bX0Rd5JklMdWBMz-81" value="&lt;font style=&quot;font-size: 18px;&quot;&gt;F.name&lt;/font&gt;" style="rounded=0;whiteSpace=wrap;html=1;" parent="1" vertex="1">
          <mxGeometry x="160" y="1360" width="100" height="60" as="geometry" />
        </mxCell>
        <mxCell id="2-lY4bX0Rd5JklMdWBMz-82" value="&lt;u&gt;&lt;font style=&quot;font-size: 18px;&quot;&gt;&lt;b&gt;SSN&lt;/b&gt;&lt;/font&gt;&lt;/u&gt;" style="rounded=0;whiteSpace=wrap;html=1;movable=1;resizable=1;rotatable=1;deletable=1;editable=1;locked=0;connectable=1;" parent="1" vertex="1">
          <mxGeometry x="40" y="1360" width="120" height="60" as="geometry" />
        </mxCell>
        <mxCell id="2-lY4bX0Rd5JklMdWBMz-84" value="&lt;font style=&quot;font-size: 18px;&quot;&gt;&lt;b&gt;Questions&lt;/b&gt;&lt;/font&gt;" style="text;html=1;align=center;verticalAlign=middle;resizable=0;points=[];autosize=1;strokeColor=none;fillColor=none;" parent="1" vertex="1">
          <mxGeometry x="29" y="1160" width="110" height="40" as="geometry" />
        </mxCell>
        <mxCell id="2-lY4bX0Rd5JklMdWBMz-85" value="&lt;font style=&quot;font-size: 18px;&quot;&gt;&lt;b&gt;course&lt;/b&gt;&lt;/font&gt;" style="text;html=1;align=center;verticalAlign=middle;resizable=0;points=[];autosize=1;strokeColor=none;fillColor=none;" parent="1" vertex="1">
          <mxGeometry x="25" y="898" width="80" height="40" as="geometry" />
        </mxCell>
        <mxCell id="2-lY4bX0Rd5JklMdWBMz-91" value="&lt;font style=&quot;font-size: 18px;&quot;&gt;&lt;font style=&quot;&quot;&gt;T&amp;amp;&lt;/font&gt;F&lt;/font&gt;" style="rounded=0;whiteSpace=wrap;html=1;" parent="1" vertex="1">
          <mxGeometry x="640" y="1500" width="120" height="60" as="geometry" />
        </mxCell>
        <mxCell id="2-lY4bX0Rd5JklMdWBMz-92" value="&lt;font style=&quot;font-size: 18px;&quot;&gt;choice&lt;/font&gt;" style="rounded=0;whiteSpace=wrap;html=1;" parent="1" vertex="1">
          <mxGeometry x="520" y="1500" width="120" height="60" as="geometry" />
        </mxCell>
        <mxCell id="2-lY4bX0Rd5JklMdWBMz-93" value="&lt;font style=&quot;font-size: 18px;&quot;&gt;title&lt;/font&gt;" style="rounded=0;whiteSpace=wrap;html=1;" parent="1" vertex="1">
          <mxGeometry x="400" y="1500" width="120" height="60" as="geometry" />
        </mxCell>
        <mxCell id="2-lY4bX0Rd5JklMdWBMz-94" value="&lt;font style=&quot;font-size: 18px;&quot;&gt;end_date&lt;/font&gt;" style="rounded=0;whiteSpace=wrap;html=1;" parent="1" vertex="1">
          <mxGeometry x="280" y="1500" width="120" height="60" as="geometry" />
        </mxCell>
        <mxCell id="2-lY4bX0Rd5JklMdWBMz-95" value="&lt;font style=&quot;font-size: 18px;&quot;&gt;description&lt;/font&gt;" style="rounded=0;whiteSpace=wrap;html=1;" parent="1" vertex="1">
          <mxGeometry x="160" y="1500" width="120" height="60" as="geometry" />
        </mxCell>
        <mxCell id="2-lY4bX0Rd5JklMdWBMz-96" value="&lt;u&gt;&lt;font style=&quot;font-size: 18px;&quot;&gt;&lt;b&gt;exam_id&lt;/b&gt;&lt;/font&gt;&lt;/u&gt;" style="rounded=0;whiteSpace=wrap;html=1;" parent="1" vertex="1">
          <mxGeometry x="40" y="1500" width="120" height="60" as="geometry" />
        </mxCell>
        <mxCell id="2-lY4bX0Rd5JklMdWBMz-97" value="&lt;u&gt;&lt;font style=&quot;font-size: 18px;&quot;&gt;&lt;b&gt;round_id&lt;/b&gt;&lt;/font&gt;&lt;/u&gt;" style="rounded=0;whiteSpace=wrap;html=1;" parent="1" vertex="1">
          <mxGeometry x="151" y="510" width="120" height="60" as="geometry" />
        </mxCell>
        <mxCell id="GpkhenYr9liRKs2xWVtS-17" style="edgeStyle=orthogonalEdgeStyle;rounded=0;orthogonalLoop=1;jettySize=auto;html=1;exitX=0.75;exitY=0;exitDx=0;exitDy=0;entryX=0.75;entryY=1;entryDx=0;entryDy=0;" edge="1" parent="1" source="2-lY4bX0Rd5JklMdWBMz-98" target="2-lY4bX0Rd5JklMdWBMz-22">
          <mxGeometry relative="1" as="geometry" />
        </mxCell>
        <mxCell id="2-lY4bX0Rd5JklMdWBMz-98" value="&lt;u&gt;&lt;font style=&quot;font-size: 18px;&quot;&gt;&lt;b&gt;Track_id&lt;/b&gt;&lt;/font&gt;&lt;/u&gt;" style="rounded=0;whiteSpace=wrap;html=1;" parent="1" vertex="1">
          <mxGeometry x="31" y="510" width="120" height="60" as="geometry" />
        </mxCell>
        <mxCell id="2-lY4bX0Rd5JklMdWBMz-130" style="edgeStyle=orthogonalEdgeStyle;rounded=0;orthogonalLoop=1;jettySize=auto;html=1;entryX=0;entryY=0.5;entryDx=0;entryDy=0;" parent="1" source="2-lY4bX0Rd5JklMdWBMz-99" target="2-lY4bX0Rd5JklMdWBMz-82" edge="1">
          <mxGeometry relative="1" as="geometry">
            <Array as="points">
              <mxPoint x="220" y="1830" />
              <mxPoint x="-100" y="1830" />
              <mxPoint x="-100" y="1390" />
            </Array>
          </mxGeometry>
        </mxCell>
        <mxCell id="2-lY4bX0Rd5JklMdWBMz-99" value="&lt;u&gt;&lt;font style=&quot;font-size: 18px;&quot;&gt;&lt;b&gt;student_id&lt;/b&gt;&lt;/font&gt;&lt;/u&gt;" style="rounded=0;whiteSpace=wrap;html=1;" parent="1" vertex="1">
          <mxGeometry x="160" y="1740" width="120" height="60" as="geometry" />
        </mxCell>
        <mxCell id="2-lY4bX0Rd5JklMdWBMz-128" style="edgeStyle=orthogonalEdgeStyle;rounded=0;orthogonalLoop=1;jettySize=auto;html=1;" parent="1" source="2-lY4bX0Rd5JklMdWBMz-100" target="2-lY4bX0Rd5JklMdWBMz-96" edge="1">
          <mxGeometry relative="1" as="geometry">
            <Array as="points">
              <mxPoint x="100" y="1820" />
              <mxPoint x="-80" y="1820" />
              <mxPoint x="-80" y="1530" />
            </Array>
          </mxGeometry>
        </mxCell>
        <mxCell id="2-lY4bX0Rd5JklMdWBMz-100" value="&lt;u&gt;&lt;font style=&quot;font-size: 18px;&quot;&gt;&lt;b&gt;Exam_id&lt;/b&gt;&lt;/font&gt;&lt;/u&gt;" style="rounded=0;whiteSpace=wrap;html=1;" parent="1" vertex="1">
          <mxGeometry x="40" y="1740" width="120" height="60" as="geometry" />
        </mxCell>
        <mxCell id="2-lY4bX0Rd5JklMdWBMz-101" value="&lt;font style=&quot;font-size: 18px;&quot;&gt;std_Q_grade&lt;/font&gt;" style="rounded=0;whiteSpace=wrap;html=1;" parent="1" vertex="1">
          <mxGeometry x="520" y="1740" width="120" height="60" as="geometry" />
        </mxCell>
        <mxCell id="2-lY4bX0Rd5JklMdWBMz-102" value="&lt;font style=&quot;font-size: 18px;&quot;&gt;st_Answer&lt;/font&gt;" style="rounded=0;whiteSpace=wrap;html=1;" parent="1" vertex="1">
          <mxGeometry x="400" y="1740" width="120" height="60" as="geometry" />
        </mxCell>
        <mxCell id="2-lY4bX0Rd5JklMdWBMz-103" value="&lt;font style=&quot;font-size: 18px;&quot;&gt;passed&lt;/font&gt;" style="rounded=0;whiteSpace=wrap;html=1;" parent="1" vertex="1">
          <mxGeometry x="397" y="1620" width="120" height="60" as="geometry" />
        </mxCell>
        <mxCell id="2-lY4bX0Rd5JklMdWBMz-104" value="&lt;font style=&quot;font-size: 14px;&quot;&gt;std_branch_satisfaction&lt;/font&gt;" style="rounded=0;whiteSpace=wrap;html=1;" parent="1" vertex="1">
          <mxGeometry x="641" y="1870" width="160" height="60" as="geometry" />
        </mxCell>
        <mxCell id="GpkhenYr9liRKs2xWVtS-21" style="edgeStyle=orthogonalEdgeStyle;rounded=0;orthogonalLoop=1;jettySize=auto;html=1;exitX=0.75;exitY=0;exitDx=0;exitDy=0;entryX=0.835;entryY=1.01;entryDx=0;entryDy=0;entryPerimeter=0;" edge="1" parent="1" source="2-lY4bX0Rd5JklMdWBMz-105" target="2-lY4bX0Rd5JklMdWBMz-96">
          <mxGeometry relative="1" as="geometry" />
        </mxCell>
        <mxCell id="2-lY4bX0Rd5JklMdWBMz-105" value="&lt;u&gt;&lt;b&gt;&lt;font style=&quot;font-size: 18px;&quot;&gt;exam_id&lt;/font&gt;&lt;/b&gt;&lt;/u&gt;" style="rounded=0;whiteSpace=wrap;html=1;" parent="1" vertex="1">
          <mxGeometry x="157" y="1620" width="120" height="60" as="geometry" />
        </mxCell>
        <mxCell id="GpkhenYr9liRKs2xWVtS-38" style="edgeStyle=orthogonalEdgeStyle;rounded=0;orthogonalLoop=1;jettySize=auto;html=1;exitX=0;exitY=0.5;exitDx=0;exitDy=0;" edge="1" parent="1" source="2-lY4bX0Rd5JklMdWBMz-106">
          <mxGeometry relative="1" as="geometry">
            <mxPoint x="36.705882352941444" y="1390" as="targetPoint" />
            <Array as="points">
              <mxPoint x="-100" y="1650" />
              <mxPoint x="-100" y="1390" />
            </Array>
          </mxGeometry>
        </mxCell>
        <mxCell id="2-lY4bX0Rd5JklMdWBMz-106" value="&lt;u&gt;&lt;font style=&quot;font-size: 18px;&quot;&gt;&lt;b&gt;student_id&lt;/b&gt;&lt;/font&gt;&lt;/u&gt;" style="rounded=0;whiteSpace=wrap;html=1;" parent="1" vertex="1">
          <mxGeometry x="37" y="1620" width="120" height="60" as="geometry" />
        </mxCell>
        <mxCell id="2-lY4bX0Rd5JklMdWBMz-144" style="edgeStyle=orthogonalEdgeStyle;rounded=0;orthogonalLoop=1;jettySize=auto;html=1;entryX=0;entryY=0.5;entryDx=0;entryDy=0;" parent="1" source="2-lY4bX0Rd5JklMdWBMz-107" target="2-lY4bX0Rd5JklMdWBMz-69" edge="1">
          <mxGeometry relative="1" as="geometry">
            <Array as="points">
              <mxPoint x="340" y="1810" />
              <mxPoint x="10" y="1810" />
              <mxPoint x="10" y="1230" />
            </Array>
          </mxGeometry>
        </mxCell>
        <mxCell id="2-lY4bX0Rd5JklMdWBMz-107" value="&lt;u&gt;&lt;font style=&quot;font-size: 18px;&quot;&gt;&lt;b&gt;Q_id&lt;/b&gt;&lt;/font&gt;&lt;/u&gt;" style="rounded=0;whiteSpace=wrap;html=1;" parent="1" vertex="1">
          <mxGeometry x="280" y="1740" width="120" height="60" as="geometry" />
        </mxCell>
        <mxCell id="2-lY4bX0Rd5JklMdWBMz-139" style="edgeStyle=orthogonalEdgeStyle;rounded=0;orthogonalLoop=1;jettySize=auto;html=1;" parent="1" source="2-lY4bX0Rd5JklMdWBMz-108" edge="1">
          <mxGeometry relative="1" as="geometry">
            <Array as="points">
              <mxPoint x="340" y="1960" />
              <mxPoint x="-30" y="1960" />
              <mxPoint x="-30" y="220" />
              <mxPoint x="40" y="220" />
            </Array>
            <mxPoint x="40" y="220" as="targetPoint" />
          </mxGeometry>
        </mxCell>
        <mxCell id="2-lY4bX0Rd5JklMdWBMz-108" value="&lt;u&gt;&lt;b&gt;&lt;font style=&quot;font-size: 18px;&quot;&gt;branch_id&lt;/font&gt;&lt;/b&gt;&lt;/u&gt;" style="rounded=0;whiteSpace=wrap;html=1;" parent="1" vertex="1">
          <mxGeometry x="280" y="1870" width="120" height="60" as="geometry" />
        </mxCell>
        <mxCell id="GpkhenYr9liRKs2xWVtS-39" style="edgeStyle=orthogonalEdgeStyle;rounded=0;orthogonalLoop=1;jettySize=auto;html=1;exitX=0.5;exitY=1;exitDx=0;exitDy=0;" edge="1" parent="1" source="2-lY4bX0Rd5JklMdWBMz-109">
          <mxGeometry relative="1" as="geometry">
            <mxPoint x="40" y="1390" as="targetPoint" />
            <Array as="points">
              <mxPoint x="220" y="1950" />
              <mxPoint x="-100" y="1950" />
              <mxPoint x="-100" y="1390" />
            </Array>
          </mxGeometry>
        </mxCell>
        <mxCell id="2-lY4bX0Rd5JklMdWBMz-109" value="&lt;u&gt;&lt;font style=&quot;font-size: 18px;&quot;&gt;&lt;b&gt;student_id&lt;/b&gt;&lt;/font&gt;&lt;/u&gt;" style="rounded=0;whiteSpace=wrap;html=1;" parent="1" vertex="1">
          <mxGeometry x="160" y="1870" width="120" height="60" as="geometry" />
        </mxCell>
        <mxCell id="GpkhenYr9liRKs2xWVtS-23" style="edgeStyle=orthogonalEdgeStyle;rounded=0;orthogonalLoop=1;jettySize=auto;html=1;exitX=0;exitY=0.5;exitDx=0;exitDy=0;" edge="1" parent="1" source="2-lY4bX0Rd5JklMdWBMz-110">
          <mxGeometry relative="1" as="geometry">
            <mxPoint x="-20" y="1899.8823529411766" as="targetPoint" />
          </mxGeometry>
        </mxCell>
        <mxCell id="2-lY4bX0Rd5JklMdWBMz-110" value="&lt;u&gt;&lt;font style=&quot;font-size: 18px;&quot;&gt;&lt;b&gt;track_id&lt;/b&gt;&lt;/font&gt;&lt;/u&gt;" style="rounded=0;whiteSpace=wrap;html=1;" parent="1" vertex="1">
          <mxGeometry x="40" y="1870" width="120" height="60" as="geometry" />
        </mxCell>
        <mxCell id="2-lY4bX0Rd5JklMdWBMz-111" value="&lt;font style=&quot;font-size: 18px;&quot;&gt;available&lt;/font&gt;" style="rounded=0;whiteSpace=wrap;html=1;" parent="1" vertex="1">
          <mxGeometry x="277" y="1620" width="120" height="60" as="geometry" />
        </mxCell>
        <mxCell id="2-lY4bX0Rd5JklMdWBMz-112" value="&lt;font style=&quot;font-size: 18px;&quot;&gt;&lt;b&gt;Student&lt;/b&gt;&lt;/font&gt;" style="text;html=1;align=center;verticalAlign=middle;resizable=0;points=[];autosize=1;strokeColor=none;fillColor=none;" parent="1" vertex="1">
          <mxGeometry x="29" y="1321" width="90" height="40" as="geometry" />
        </mxCell>
        <mxCell id="2-lY4bX0Rd5JklMdWBMz-113" value="&lt;font style=&quot;font-size: 18px;&quot;&gt;&lt;b&gt;Exam&lt;/b&gt;&lt;/font&gt;" style="text;html=1;align=center;verticalAlign=middle;resizable=0;points=[];autosize=1;strokeColor=none;fillColor=none;" parent="1" vertex="1">
          <mxGeometry x="30" y="1455" width="70" height="40" as="geometry" />
        </mxCell>
        <mxCell id="2-lY4bX0Rd5JklMdWBMz-118" value="&lt;font style=&quot;font-size: 18px;&quot;&gt;&lt;b&gt;Answers&lt;/b&gt;&lt;/font&gt;" style="text;html=1;align=center;verticalAlign=middle;resizable=0;points=[];autosize=1;strokeColor=none;fillColor=none;" parent="1" vertex="1">
          <mxGeometry x="29" y="1710" width="100" height="40" as="geometry" />
        </mxCell>
        <mxCell id="2-lY4bX0Rd5JklMdWBMz-124" value="&lt;font style=&quot;font-size: 18px;&quot;&gt;&lt;b&gt;Student_Track_Branch&lt;/b&gt;&lt;/font&gt;" style="text;html=1;align=center;verticalAlign=middle;resizable=0;points=[];autosize=1;strokeColor=none;fillColor=none;" parent="1" vertex="1">
          <mxGeometry x="29" y="1831" width="220" height="40" as="geometry" />
        </mxCell>
        <mxCell id="2-lY4bX0Rd5JklMdWBMz-125" value="&lt;u&gt;&lt;font style=&quot;font-size: 18px;&quot;&gt;&lt;b&gt;round_id&lt;/b&gt;&lt;/font&gt;&lt;/u&gt;" style="rounded=0;whiteSpace=wrap;html=1;" parent="1" vertex="1">
          <mxGeometry x="400" y="1870" width="120" height="60" as="geometry" />
        </mxCell>
        <mxCell id="2-lY4bX0Rd5JklMdWBMz-135" value="&lt;font style=&quot;font-size: 18px;&quot;&gt;&lt;b&gt;Exam_Student&lt;/b&gt;&lt;/font&gt;" style="text;html=1;align=center;verticalAlign=middle;resizable=0;points=[];autosize=1;strokeColor=none;fillColor=none;" parent="1" vertex="1">
          <mxGeometry x="26" y="1580" width="150" height="40" as="geometry" />
        </mxCell>
        <mxCell id="2-lY4bX0Rd5JklMdWBMz-141" value="&lt;font style=&quot;font-size: 18px;&quot;&gt;&lt;b&gt;Track_Round&lt;/b&gt;&lt;/font&gt;" style="text;html=1;align=center;verticalAlign=middle;resizable=0;points=[];autosize=1;strokeColor=none;fillColor=none;" parent="1" vertex="1">
          <mxGeometry x="20" y="470" width="140" height="40" as="geometry" />
        </mxCell>
        <mxCell id="2-lY4bX0Rd5JklMdWBMz-142" value="&lt;font style=&quot;font-size: 18px;&quot;&gt;price&lt;/font&gt;" style="rounded=0;whiteSpace=wrap;html=1;" parent="1" vertex="1">
          <mxGeometry x="391" y="510" width="120" height="60" as="geometry" />
        </mxCell>
        <mxCell id="2-lY4bX0Rd5JklMdWBMz-146" value="&lt;font style=&quot;font-size: 18px;&quot;&gt;price&lt;/font&gt;" style="rounded=0;whiteSpace=wrap;html=1;" parent="1" vertex="1">
          <mxGeometry x="400" y="1990" width="120" height="60" as="geometry" />
        </mxCell>
        <mxCell id="2-lY4bX0Rd5JklMdWBMz-147" value="&lt;u&gt;&lt;b&gt;&lt;font style=&quot;font-size: 18px;&quot;&gt;round_id&lt;/font&gt;&lt;/b&gt;&lt;/u&gt;" style="rounded=0;whiteSpace=wrap;html=1;" parent="1" vertex="1">
          <mxGeometry x="160" y="1990" width="120" height="60" as="geometry" />
        </mxCell>
        <mxCell id="GpkhenYr9liRKs2xWVtS-36" style="edgeStyle=orthogonalEdgeStyle;rounded=0;orthogonalLoop=1;jettySize=auto;html=1;exitX=0;exitY=0.5;exitDx=0;exitDy=0;entryX=0;entryY=0.5;entryDx=0;entryDy=0;" edge="1" parent="1" source="2-lY4bX0Rd5JklMdWBMz-148" target="2-lY4bX0Rd5JklMdWBMz-52">
          <mxGeometry relative="1" as="geometry">
            <Array as="points">
              <mxPoint y="2020" />
              <mxPoint y="960" />
            </Array>
          </mxGeometry>
        </mxCell>
        <mxCell id="2-lY4bX0Rd5JklMdWBMz-148" value="&lt;u&gt;&lt;font style=&quot;font-size: 18px;&quot;&gt;&lt;b&gt;course_id&lt;/b&gt;&lt;/font&gt;&lt;/u&gt;" style="rounded=0;whiteSpace=wrap;html=1;" parent="1" vertex="1">
          <mxGeometry x="40" y="1990" width="120" height="60" as="geometry" />
        </mxCell>
        <mxCell id="2-lY4bX0Rd5JklMdWBMz-149" value="&lt;font style=&quot;font-size: 18px;&quot;&gt;&lt;b&gt;Course_Round&lt;/b&gt;&lt;/font&gt;" style="text;html=1;align=center;verticalAlign=middle;resizable=0;points=[];autosize=1;strokeColor=none;fillColor=none;" parent="1" vertex="1">
          <mxGeometry x="30" y="1955" width="150" height="40" as="geometry" />
        </mxCell>
        <mxCell id="2-lY4bX0Rd5JklMdWBMz-158" value="&lt;font style=&quot;font-size: 18px;&quot;&gt;&lt;b&gt;Student_take_Course&lt;/b&gt;&lt;/font&gt;" style="text;html=1;align=center;verticalAlign=middle;resizable=0;points=[];autosize=1;strokeColor=none;fillColor=none;" parent="1" vertex="1">
          <mxGeometry x="26" y="1020" width="210" height="40" as="geometry" />
        </mxCell>
        <mxCell id="2-lY4bX0Rd5JklMdWBMz-160" value="&lt;font style=&quot;font-size: 18px;&quot;&gt;e_date&lt;/font&gt;" style="rounded=0;whiteSpace=wrap;html=1;" parent="1" vertex="1">
          <mxGeometry x="521" y="833" width="120" height="60" as="geometry" />
        </mxCell>
        <mxCell id="GpkhenYr9liRKs2xWVtS-12" style="edgeStyle=orthogonalEdgeStyle;rounded=0;orthogonalLoop=1;jettySize=auto;html=1;exitX=0.75;exitY=0;exitDx=0;exitDy=0;entryX=0.75;entryY=1;entryDx=0;entryDy=0;" edge="1" parent="1" source="2-lY4bX0Rd5JklMdWBMz-162" target="2-lY4bX0Rd5JklMdWBMz-7">
          <mxGeometry relative="1" as="geometry">
            <Array as="points">
              <mxPoint x="270" y="833" />
              <mxPoint x="270" y="790" />
              <mxPoint x="127" y="790" />
            </Array>
          </mxGeometry>
        </mxCell>
        <mxCell id="2-lY4bX0Rd5JklMdWBMz-162" value="&lt;u&gt;&lt;font style=&quot;font-size: 18px;&quot;&gt;&lt;b&gt;instructor_id&lt;/b&gt;&lt;/font&gt;&lt;/u&gt;" style="rounded=0;whiteSpace=wrap;html=1;" parent="1" vertex="1">
          <mxGeometry x="161" y="833" width="120" height="60" as="geometry" />
        </mxCell>
        <mxCell id="2-lY4bX0Rd5JklMdWBMz-163" value="&lt;u&gt;&lt;font style=&quot;font-size: 18px;&quot;&gt;&lt;b&gt;Course_id&lt;/b&gt;&lt;/font&gt;&lt;/u&gt;" style="rounded=0;whiteSpace=wrap;html=1;" parent="1" vertex="1">
          <mxGeometry x="41" y="833" width="120" height="60" as="geometry" />
        </mxCell>
        <mxCell id="2-lY4bX0Rd5JklMdWBMz-164" value="&lt;u&gt;&lt;font style=&quot;font-size: 18px;&quot;&gt;&lt;b style=&quot;&quot;&gt;generated_id&lt;/b&gt;&lt;/font&gt;&lt;/u&gt;" style="rounded=0;whiteSpace=wrap;html=1;" parent="1" vertex="1">
          <mxGeometry x="281" y="833" width="120" height="60" as="geometry" />
        </mxCell>
        <mxCell id="2-lY4bX0Rd5JklMdWBMz-161" value="&lt;font style=&quot;font-size: 18px;&quot;&gt;s_date&lt;/font&gt;" style="rounded=0;whiteSpace=wrap;html=1;" parent="1" vertex="1">
          <mxGeometry x="401" y="833" width="120" height="60" as="geometry" />
        </mxCell>
        <mxCell id="Q7ExMp8XgD985KsD7Zx5-4" value="&lt;u&gt;&lt;b&gt;&lt;font style=&quot;font-size: 18px;&quot;&gt;year&lt;/font&gt;&lt;/b&gt;&lt;/u&gt;" style="rounded=0;whiteSpace=wrap;html=1;" parent="1" vertex="1">
          <mxGeometry x="271" y="510" width="120" height="60" as="geometry" />
        </mxCell>
        <mxCell id="Q7ExMp8XgD985KsD7Zx5-8" value="&lt;u&gt;&lt;b&gt;&lt;font style=&quot;font-size: 18px;&quot;&gt;year&lt;/font&gt;&lt;/b&gt;&lt;/u&gt;" style="rounded=0;whiteSpace=wrap;html=1;" parent="1" vertex="1">
          <mxGeometry x="280" y="1990" width="120" height="60" as="geometry" />
        </mxCell>
        <mxCell id="Q7ExMp8XgD985KsD7Zx5-10" value="&lt;font style=&quot;font-size: 18px;&quot;&gt;&lt;b&gt;Course_Track&lt;/b&gt;&lt;/font&gt;" style="text;html=1;align=center;verticalAlign=middle;resizable=0;points=[];autosize=1;strokeColor=none;fillColor=none;" parent="1" vertex="1">
          <mxGeometry x="29" y="2080" width="140" height="40" as="geometry" />
        </mxCell>
        <mxCell id="Q7ExMp8XgD985KsD7Zx5-11" value="&lt;font style=&quot;font-size: 18px;&quot;&gt;hours&lt;/font&gt;" style="rounded=0;whiteSpace=wrap;html=1;" parent="1" vertex="1">
          <mxGeometry x="280" y="2110" width="120" height="60" as="geometry" />
        </mxCell>
        <mxCell id="Q7ExMp8XgD985KsD7Zx5-12" value="&lt;u&gt;&lt;b&gt;&lt;font style=&quot;font-size: 18px;&quot;&gt;track_id&lt;/font&gt;&lt;/b&gt;&lt;/u&gt;" style="rounded=0;whiteSpace=wrap;html=1;" parent="1" vertex="1">
          <mxGeometry x="160" y="2110" width="120" height="60" as="geometry" />
        </mxCell>
        <mxCell id="Q7ExMp8XgD985KsD7Zx5-14" style="edgeStyle=orthogonalEdgeStyle;rounded=0;orthogonalLoop=1;jettySize=auto;html=1;exitX=0;exitY=0.5;exitDx=0;exitDy=0;" parent="1" source="Q7ExMp8XgD985KsD7Zx5-13" target="2-lY4bX0Rd5JklMdWBMz-52" edge="1">
          <mxGeometry relative="1" as="geometry">
            <Array as="points">
              <mxPoint y="2140" />
              <mxPoint y="960" />
            </Array>
          </mxGeometry>
        </mxCell>
        <mxCell id="Q7ExMp8XgD985KsD7Zx5-13" value="&lt;u&gt;&lt;font style=&quot;font-size: 18px;&quot;&gt;&lt;b&gt;course_id&lt;/b&gt;&lt;/font&gt;&lt;/u&gt;" style="rounded=0;whiteSpace=wrap;html=1;" parent="1" vertex="1">
          <mxGeometry x="40" y="2110" width="120" height="60" as="geometry" />
        </mxCell>
        <mxCell id="Q7ExMp8XgD985KsD7Zx5-18" value="&lt;font style=&quot;font-size: 14px;&quot;&gt;std_crs_satisfaction&lt;/font&gt;" style="rounded=0;whiteSpace=wrap;html=1;" parent="1" vertex="1">
          <mxGeometry x="570" y="1060" width="130" height="60" as="geometry" />
        </mxCell>
        <mxCell id="Q7ExMp8XgD985KsD7Zx5-19" value="&lt;font style=&quot;font-size: 18px;&quot;&gt;year&lt;/font&gt;" style="rounded=0;whiteSpace=wrap;html=1;" parent="1" vertex="1">
          <mxGeometry x="635" y="280" width="120" height="60" as="geometry" />
        </mxCell>
        <mxCell id="GpkhenYr9liRKs2xWVtS-32" style="edgeStyle=orthogonalEdgeStyle;rounded=0;orthogonalLoop=1;jettySize=auto;html=1;exitX=0.25;exitY=1;exitDx=0;exitDy=0;entryX=0.5;entryY=1;entryDx=0;entryDy=0;" edge="1" parent="1" source="2-lY4bX0Rd5JklMdWBMz-145" target="2-lY4bX0Rd5JklMdWBMz-164">
          <mxGeometry relative="1" as="geometry">
            <Array as="points">
              <mxPoint x="545" y="350" />
              <mxPoint x="-80" y="350" />
              <mxPoint x="-80" y="913" />
              <mxPoint x="341" y="913" />
            </Array>
          </mxGeometry>
        </mxCell>
        <mxCell id="GpkhenYr9liRKs2xWVtS-34" style="edgeStyle=orthogonalEdgeStyle;rounded=0;orthogonalLoop=1;jettySize=auto;html=1;exitX=0.25;exitY=1;exitDx=0;exitDy=0;entryX=0.25;entryY=1;entryDx=0;entryDy=0;" edge="1" parent="1" source="2-lY4bX0Rd5JklMdWBMz-145" target="GpkhenYr9liRKs2xWVtS-33">
          <mxGeometry relative="1" as="geometry">
            <Array as="points">
              <mxPoint x="-80" y="340" />
              <mxPoint x="-80" y="1140" />
              <mxPoint x="840" y="1140" />
            </Array>
          </mxGeometry>
        </mxCell>
        <mxCell id="2-lY4bX0Rd5JklMdWBMz-145" value="&lt;u&gt;&lt;font style=&quot;font-size: 18px;&quot;&gt;&lt;b&gt;generated_id&lt;/b&gt;&lt;/font&gt;&lt;/u&gt;" style="rounded=0;whiteSpace=wrap;html=1;" parent="1" vertex="1">
          <mxGeometry x="515" y="280" width="120" height="60" as="geometry" />
        </mxCell>
        <mxCell id="2-lY4bX0Rd5JklMdWBMz-24" value="&lt;font style=&quot;font-size: 18px;&quot;&gt;round_id&lt;/font&gt;" style="rounded=0;whiteSpace=wrap;html=1;movable=1;resizable=1;rotatable=1;deletable=1;editable=1;locked=0;connectable=1;" parent="1" vertex="1">
          <mxGeometry x="395" y="280" width="120" height="60" as="geometry" />
        </mxCell>
        <mxCell id="2-lY4bX0Rd5JklMdWBMz-25" value="&lt;font style=&quot;font-size: 18px;&quot;&gt;instructor_id&lt;/font&gt;" style="rounded=0;whiteSpace=wrap;html=1;movable=1;resizable=1;rotatable=1;deletable=1;editable=1;locked=0;connectable=1;" parent="1" vertex="1">
          <mxGeometry x="275" y="280" width="120" height="60" as="geometry" />
        </mxCell>
        <mxCell id="GpkhenYr9liRKs2xWVtS-20" style="edgeStyle=orthogonalEdgeStyle;rounded=0;orthogonalLoop=1;jettySize=auto;html=1;exitX=0.75;exitY=0;exitDx=0;exitDy=0;entryX=0.89;entryY=-0.162;entryDx=0;entryDy=0;entryPerimeter=0;" edge="1" parent="1" source="2-lY4bX0Rd5JklMdWBMz-26" target="2-lY4bX0Rd5JklMdWBMz-47">
          <mxGeometry relative="1" as="geometry">
            <Array as="points">
              <mxPoint x="245" y="250" />
              <mxPoint x="150" y="250" />
            </Array>
          </mxGeometry>
        </mxCell>
        <mxCell id="2-lY4bX0Rd5JklMdWBMz-26" value="&lt;font style=&quot;font-size: 18px;&quot;&gt;branch_id&lt;/font&gt;" style="rounded=0;whiteSpace=wrap;html=1;movable=1;resizable=1;rotatable=1;deletable=1;editable=1;locked=0;connectable=1;" parent="1" vertex="1">
          <mxGeometry x="155" y="280" width="120" height="60" as="geometry" />
        </mxCell>
        <mxCell id="GpkhenYr9liRKs2xWVtS-18" style="edgeStyle=orthogonalEdgeStyle;rounded=0;orthogonalLoop=1;jettySize=auto;html=1;exitX=0.75;exitY=1;exitDx=0;exitDy=0;entryX=0.75;entryY=0;entryDx=0;entryDy=0;" edge="1" parent="1" source="2-lY4bX0Rd5JklMdWBMz-27" target="2-lY4bX0Rd5JklMdWBMz-22">
          <mxGeometry relative="1" as="geometry" />
        </mxCell>
        <mxCell id="2-lY4bX0Rd5JklMdWBMz-27" value="&lt;font style=&quot;font-size: 18px;&quot;&gt;track_id&lt;/font&gt;" style="rounded=0;whiteSpace=wrap;html=1;movable=1;resizable=1;rotatable=1;deletable=1;editable=1;locked=0;connectable=1;" parent="1" vertex="1">
          <mxGeometry x="35" y="280" width="120" height="60" as="geometry" />
        </mxCell>
        <mxCell id="Q7ExMp8XgD985KsD7Zx5-20" value="&lt;font style=&quot;font-size: 18px;&quot;&gt;full_grade&lt;/font&gt;" style="rounded=0;whiteSpace=wrap;html=1;" parent="1" vertex="1">
          <mxGeometry x="641" y="833" width="120" height="60" as="geometry" />
        </mxCell>
        <mxCell id="Q7ExMp8XgD985KsD7Zx5-21" value="&lt;font style=&quot;font-size: 14px;&quot;&gt;std_crs_grade&lt;/font&gt;" style="rounded=0;whiteSpace=wrap;html=1;" parent="1" vertex="1">
          <mxGeometry x="700" y="1060" width="110" height="60" as="geometry" />
        </mxCell>
        <mxCell id="Q7ExMp8XgD985KsD7Zx5-22" value="&lt;font style=&quot;font-size: 18px;&quot;&gt;student_grade&lt;/font&gt;" style="rounded=0;whiteSpace=wrap;html=1;" parent="1" vertex="1">
          <mxGeometry x="517" y="1620" width="120" height="60" as="geometry" />
        </mxCell>
        <mxCell id="Q7ExMp8XgD985KsD7Zx5-23" value="&lt;font style=&quot;font-size: 18px;&quot;&gt;supervisor&lt;/font&gt;" style="rounded=0;whiteSpace=wrap;html=1;" parent="1" vertex="1">
          <mxGeometry x="755" y="280" width="120" height="60" as="geometry" />
        </mxCell>
        <mxCell id="GpkhenYr9liRKs2xWVtS-7" value="&lt;font style=&quot;font-size: 18px;&quot;&gt;INST_ID&lt;/font&gt;" style="rounded=0;whiteSpace=wrap;html=1;" vertex="1" parent="1">
          <mxGeometry x="760" y="1500" width="120" height="60" as="geometry" />
        </mxCell>
        <mxCell id="GpkhenYr9liRKs2xWVtS-35" style="edgeStyle=orthogonalEdgeStyle;rounded=0;orthogonalLoop=1;jettySize=auto;html=1;exitX=0.25;exitY=1;exitDx=0;exitDy=0;entryX=0;entryY=0.5;entryDx=0;entryDy=0;" edge="1" parent="1" source="GpkhenYr9liRKs2xWVtS-8" target="2-lY4bX0Rd5JklMdWBMz-52">
          <mxGeometry relative="1" as="geometry">
            <Array as="points">
              <mxPoint x="910" y="1570" />
              <mxPoint y="1570" />
              <mxPoint y="960" />
            </Array>
          </mxGeometry>
        </mxCell>
        <mxCell id="GpkhenYr9liRKs2xWVtS-8" value="&lt;font style=&quot;font-size: 18px;&quot;&gt;CRS_ID&lt;/font&gt;" style="rounded=0;whiteSpace=wrap;html=1;" vertex="1" parent="1">
          <mxGeometry x="880" y="1500" width="120" height="60" as="geometry" />
        </mxCell>
        <mxCell id="GpkhenYr9liRKs2xWVtS-9" value="&lt;font style=&quot;font-size: 18px;&quot;&gt;GENE_ID&lt;/font&gt;" style="rounded=0;whiteSpace=wrap;html=1;" vertex="1" parent="1">
          <mxGeometry x="1000" y="1500" width="120" height="60" as="geometry" />
        </mxCell>
        <mxCell id="2-lY4bX0Rd5JklMdWBMz-20" value="&lt;font style=&quot;font-size: 18px;&quot;&gt;hours&lt;/font&gt;" style="rounded=0;whiteSpace=wrap;html=1;" parent="1" vertex="1">
          <mxGeometry x="276" y="391" width="120" height="60" as="geometry" />
        </mxCell>
        <mxCell id="2-lY4bX0Rd5JklMdWBMz-21" value="&lt;font style=&quot;font-size: 18px;&quot;&gt;name&lt;/font&gt;" style="rounded=0;whiteSpace=wrap;html=1;" parent="1" vertex="1">
          <mxGeometry x="156" y="391" width="120" height="60" as="geometry" />
        </mxCell>
        <mxCell id="GpkhenYr9liRKs2xWVtS-22" style="edgeStyle=orthogonalEdgeStyle;rounded=0;orthogonalLoop=1;jettySize=auto;html=1;entryX=0.5;entryY=1;entryDx=0;entryDy=0;" edge="1" parent="1" source="2-lY4bX0Rd5JklMdWBMz-22" target="Q7ExMp8XgD985KsD7Zx5-12">
          <mxGeometry relative="1" as="geometry">
            <Array as="points">
              <mxPoint x="-20" y="421" />
              <mxPoint x="-20" y="2180" />
              <mxPoint x="220" y="2180" />
            </Array>
          </mxGeometry>
        </mxCell>
        <mxCell id="2-lY4bX0Rd5JklMdWBMz-22" value="&lt;u&gt;&lt;font style=&quot;font-size: 18px;&quot;&gt;&lt;b&gt;track_id&lt;/b&gt;&lt;/font&gt;&lt;/u&gt;" style="rounded=0;whiteSpace=wrap;html=1;" parent="1" vertex="1">
          <mxGeometry x="36" y="391" width="120" height="60" as="geometry" />
        </mxCell>
        <mxCell id="2-lY4bX0Rd5JklMdWBMz-48" value="&lt;font style=&quot;font-size: 18px;&quot;&gt;&lt;b&gt;Track&lt;/b&gt;&lt;/font&gt;" style="text;html=1;align=center;verticalAlign=middle;resizable=0;points=[];autosize=1;strokeColor=none;fillColor=none;" parent="1" vertex="1">
          <mxGeometry x="26" y="346" width="70" height="40" as="geometry" />
        </mxCell>
        <mxCell id="GpkhenYr9liRKs2xWVtS-15" style="edgeStyle=orthogonalEdgeStyle;rounded=0;orthogonalLoop=1;jettySize=auto;html=1;exitX=0.75;exitY=0;exitDx=0;exitDy=0;entryX=0.5;entryY=1;entryDx=0;entryDy=0;" edge="1" parent="1" source="2-lY4bX0Rd5JklMdWBMz-39" target="2-lY4bX0Rd5JklMdWBMz-97">
          <mxGeometry relative="1" as="geometry">
            <Array as="points">
              <mxPoint x="115" y="590" />
              <mxPoint x="211" y="590" />
            </Array>
          </mxGeometry>
        </mxCell>
        <mxCell id="GpkhenYr9liRKs2xWVtS-16" style="edgeStyle=orthogonalEdgeStyle;rounded=0;orthogonalLoop=1;jettySize=auto;html=1;exitX=0.5;exitY=0;exitDx=0;exitDy=0;entryX=0.5;entryY=1;entryDx=0;entryDy=0;" edge="1" parent="1" source="2-lY4bX0Rd5JklMdWBMz-38" target="Q7ExMp8XgD985KsD7Zx5-4">
          <mxGeometry relative="1" as="geometry">
            <Array as="points">
              <mxPoint x="240" y="615" />
              <mxPoint x="240" y="600" />
              <mxPoint x="331" y="600" />
            </Array>
          </mxGeometry>
        </mxCell>
        <mxCell id="GpkhenYr9liRKs2xWVtS-24" style="edgeStyle=orthogonalEdgeStyle;rounded=0;orthogonalLoop=1;jettySize=auto;html=1;exitX=0.75;exitY=0;exitDx=0;exitDy=0;entryX=0.5;entryY=1;entryDx=0;entryDy=0;" edge="1" parent="1" source="2-lY4bX0Rd5JklMdWBMz-39" target="2-lY4bX0Rd5JklMdWBMz-24">
          <mxGeometry relative="1" as="geometry">
            <Array as="points">
              <mxPoint x="115" y="590" />
              <mxPoint x="530" y="590" />
              <mxPoint x="530" y="370" />
              <mxPoint x="455" y="370" />
            </Array>
          </mxGeometry>
        </mxCell>
        <mxCell id="GpkhenYr9liRKs2xWVtS-26" style="edgeStyle=orthogonalEdgeStyle;rounded=0;orthogonalLoop=1;jettySize=auto;html=1;exitX=0.75;exitY=0;exitDx=0;exitDy=0;entryX=0.5;entryY=1;entryDx=0;entryDy=0;" edge="1" parent="1" source="2-lY4bX0Rd5JklMdWBMz-38" target="Q7ExMp8XgD985KsD7Zx5-19">
          <mxGeometry relative="1" as="geometry">
            <Array as="points">
              <mxPoint x="240" y="615" />
              <mxPoint x="240" y="600" />
              <mxPoint x="695" y="600" />
            </Array>
          </mxGeometry>
        </mxCell>
        <mxCell id="GpkhenYr9liRKs2xWVtS-27" style="edgeStyle=orthogonalEdgeStyle;rounded=0;orthogonalLoop=1;jettySize=auto;html=1;entryX=0.322;entryY=1.047;entryDx=0;entryDy=0;entryPerimeter=0;" edge="1" parent="1" source="2-lY4bX0Rd5JklMdWBMz-39" target="2-lY4bX0Rd5JklMdWBMz-147">
          <mxGeometry relative="1" as="geometry">
            <Array as="points">
              <mxPoint x="-50" y="645" />
              <mxPoint x="-50" y="2060" />
              <mxPoint x="199" y="2060" />
            </Array>
          </mxGeometry>
        </mxCell>
        <mxCell id="GpkhenYr9liRKs2xWVtS-28" style="edgeStyle=orthogonalEdgeStyle;rounded=0;orthogonalLoop=1;jettySize=auto;html=1;exitX=0.25;exitY=1;exitDx=0;exitDy=0;entryX=0.25;entryY=1;entryDx=0;entryDy=0;" edge="1" parent="1" source="2-lY4bX0Rd5JklMdWBMz-38" target="Q7ExMp8XgD985KsD7Zx5-8">
          <mxGeometry relative="1" as="geometry">
            <Array as="points">
              <mxPoint x="170" y="675" />
              <mxPoint x="170" y="680" />
              <mxPoint x="-60" y="680" />
              <mxPoint x="-60" y="2070" />
              <mxPoint x="310" y="2070" />
            </Array>
          </mxGeometry>
        </mxCell>
        <mxCell id="GpkhenYr9liRKs2xWVtS-29" style="edgeStyle=orthogonalEdgeStyle;rounded=0;orthogonalLoop=1;jettySize=auto;html=1;entryX=0.5;entryY=1;entryDx=0;entryDy=0;" edge="1" parent="1" source="2-lY4bX0Rd5JklMdWBMz-7" target="GpkhenYr9liRKs2xWVtS-7">
          <mxGeometry relative="1" as="geometry">
            <Array as="points">
              <mxPoint x="-10" y="753" />
              <mxPoint x="-10" y="1580" />
              <mxPoint x="820" y="1580" />
            </Array>
          </mxGeometry>
        </mxCell>
        <mxCell id="GpkhenYr9liRKs2xWVtS-30" style="edgeStyle=orthogonalEdgeStyle;rounded=0;orthogonalLoop=1;jettySize=auto;html=1;entryX=0.5;entryY=1;entryDx=0;entryDy=0;" edge="1" parent="1" source="2-lY4bX0Rd5JklMdWBMz-7" target="2-lY4bX0Rd5JklMdWBMz-162">
          <mxGeometry relative="1" as="geometry">
            <Array as="points">
              <mxPoint x="-10" y="753" />
              <mxPoint x="-10" y="900" />
              <mxPoint x="221" y="900" />
            </Array>
          </mxGeometry>
        </mxCell>
        <mxCell id="GpkhenYr9liRKs2xWVtS-31" style="edgeStyle=orthogonalEdgeStyle;rounded=0;orthogonalLoop=1;jettySize=auto;html=1;exitX=0;exitY=0.5;exitDx=0;exitDy=0;entryX=0;entryY=0.5;entryDx=0;entryDy=0;" edge="1" parent="1" source="2-lY4bX0Rd5JklMdWBMz-7" target="2-lY4bX0Rd5JklMdWBMz-30">
          <mxGeometry relative="1" as="geometry">
            <Array as="points">
              <mxPoint x="-10" y="753" />
              <mxPoint x="-10" y="1090" />
            </Array>
          </mxGeometry>
        </mxCell>
        <mxCell id="GpkhenYr9liRKs2xWVtS-33" value="&lt;u&gt;&lt;font style=&quot;font-size: 18px;&quot;&gt;&lt;b style=&quot;&quot;&gt;generated_id&lt;/b&gt;&lt;/font&gt;&lt;/u&gt;" style="rounded=0;whiteSpace=wrap;html=1;" vertex="1" parent="1">
          <mxGeometry x="810" y="1060" width="120" height="60" as="geometry" />
        </mxCell>
        <mxCell id="GpkhenYr9liRKs2xWVtS-41" value="&lt;u&gt;&lt;b&gt;&lt;font style=&quot;font-size: 18px;&quot;&gt;year&lt;/font&gt;&lt;/b&gt;&lt;/u&gt;" style="rounded=0;whiteSpace=wrap;html=1;" vertex="1" parent="1">
          <mxGeometry x="521" y="1870" width="120" height="60" as="geometry" />
        </mxCell>
        <mxCell id="GpkhenYr9liRKs2xWVtS-42" style="edgeStyle=orthogonalEdgeStyle;rounded=0;orthogonalLoop=1;jettySize=auto;html=1;exitX=0;exitY=0.5;exitDx=0;exitDy=0;entryX=0.5;entryY=1;entryDx=0;entryDy=0;entryPerimeter=0;" edge="1" parent="1" source="2-lY4bX0Rd5JklMdWBMz-39" target="2-lY4bX0Rd5JklMdWBMz-125">
          <mxGeometry relative="1" as="geometry">
            <mxPoint x="459.99999999999955" y="1941.88232421875" as="targetPoint" />
            <Array as="points">
              <mxPoint x="-50" y="645" />
              <mxPoint x="-50" y="1950" />
              <mxPoint x="460" y="1950" />
            </Array>
          </mxGeometry>
        </mxCell>
        <mxCell id="GpkhenYr9liRKs2xWVtS-43" style="edgeStyle=orthogonalEdgeStyle;rounded=0;orthogonalLoop=1;jettySize=auto;html=1;exitX=0.25;exitY=1;exitDx=0;exitDy=0;entryX=0.25;entryY=1;entryDx=0;entryDy=0;" edge="1" parent="1" source="2-lY4bX0Rd5JklMdWBMz-38" target="GpkhenYr9liRKs2xWVtS-41">
          <mxGeometry relative="1" as="geometry">
            <Array as="points">
              <mxPoint x="175" y="680" />
              <mxPoint x="-60" y="680" />
              <mxPoint x="-60" y="1950" />
              <mxPoint x="551" y="1950" />
            </Array>
          </mxGeometry>
        </mxCell>
      </root>
    </mxGraphModel>
  </diagram>
</mxfile>
